<svg xmlns="http://www.w3.org/2000/svg" viewBox="0 30.5 95.6 62.3" role="img">
  <!-- Mollie logomark. This is the "m" exactly as it is drawn in the wordmark the vendor
       supplied (Mollie-Logo-Black-2023.svg) — the last subpath of that file, cropped to its own
       bounding box, with no point moved. The full wordmark is 3.4:1 and cannot be read in a
       tile; the glyph alone is 1.54:1 and can. currentColor so it takes the tile tint and works
       in both themes. -->
  <path fill="currentColor" fill-rule="evenodd" clip-rule="evenodd" d="M70.4,30.6c-0.8-0.1-1.6-0.1-2.4-0.1c-7.7,0-15,3.1-20.2,8.7c-5.2-5.5-12.5-8.7-20.1-8.7C12.4,30.5,0,42.9,0,58v34.7h14.9V58.5c0-6.3,5.2-12.1,11.3-12.7c0.4,0,0.9-0.1,1.3-0.1c6.9,0,12.5,5.6,12.5,12.5v34.6h15.2V58.4c0-6.3,5.2-12.1,11.3-12.7c0.4,0,0.9-0.1,1.3-0.1c6.9,0,12.5,5.6,12.6,12.4v34.7h15.2V58.5c0-7-2.6-13.6-7.2-18.8C83.7,34.4,77.3,31.2,70.4,30.6z"/>
</svg>
